# xmcd CD database file
#
# Track frame offsets:
#	150
#	15527
#	38906
#	48515
#	79528
#	104393
#	116566
#	138625
#	160723
#
# Disc length: 2395 seconds
#
# Revision: 0
# Processed by: cddbd v1.5.2PL0 Copyright (c) Steve Scherf et al.
# Submitted via: CDex 1.70beta2
#
DISCID=6b095909
DTITLE=Jerseyband Live - Lung Punch Fantasy
DYEAR=2007
DGENRE=Jazz
TTITLE0=Sheffield's Law
TTITLE1=Titan
TTITLE2=Feminem
TTITLE3=Sangwich
TTITLE4=Mischief
TTITLE5=Lord magnificient
TTITLE6=Steve Jobs For Jerseyband
TTITLE7=French Parade
TTITLE8=Shave Your Shelf
EXTD=YEAR: 2007
EXTT0=
EXTT1=
EXTT2=
EXTT3=
EXTT4=
EXTT5=
EXTT6=
EXTT7=
EXTT8=
PLAYORDER=
